<svg xmlns="http://www.w3.org/2000/svg" viewBox="0 0 24 24" fill="none" stroke="currentColor" stroke-linejoin="round" stroke-width=".2">
    <path d="m8.907 8.642 3.094 1.268v11.737l-2.904-1.19L4.85 12.73v5.984L2.059 17.57V5.836L4.977 7.03l3.93 7.624V8.642M19.13 18.725l-4.21-5.447v3.044l.962 1.275 3.249 1.128"/>
    <path d="m8.907 8.642 3.063-1.226 3.059 1.254L12 9.91 8.907 8.642m7.33-2.631 2.897-1.201 2.81 1.026-2.968 1.215-2.74-1.04M4.977 7.03 2.06 5.836l2.683-.885 2.792 1.046L4.977 7.03m6.989-2.712-2.81-1.025 2.705-.948 2.743.94-2.638 1.033"/>
    <path d="m14.049 8.266.98.404 3.947 5.608V7.051l-2.74-1.04-2.187 2.255m-5.142.509L7.601 6.138l1.555-2.845 2.81 1.025-2.353 4.043-.706.28v.134"/>
    <path fill="currentColor" d="M8.907 14.654 4.977 7.03l2.557-1.033 1.373 2.778v5.88m3.094-4.745 3.028-1.24 3.947 5.608V7.051l2.968-1.215v11.733l-2.813 1.156-4.211-5.447v7.171L12 21.647V9.91m-4.466 7.705L4.85 12.73v5.984Zm6.515-9.349.555-.573V3.286l-2.638 1.032-2.353 4.043 2.357-.945 2.079.85"/>
</svg>
